name C:/MyDriveSym/Projects/mobilecap/Data\Session20210830_0002\mocap\ForceDataProcessed\walking3_forces.mot
datacolumns 19
datarows 14
range 0.34200000 0.34850000
endheader 
time	R_ground_force_vx	R_ground_force_vy	R_ground_force_vz	R_ground_force_px	R_ground_force_py	R_ground_force_pz	R_ground_torque_x	R_ground_torque_y	R_ground_torque_z	L_ground_force_vx	L_ground_force_vy	L_ground_force_vz	L_ground_force_px	L_ground_force_py	L_ground_force_pz	L_ground_torque_x	L_ground_torque_y	L_ground_torque_z	
          0.34200000	        -51.51399000	        653.25345500	        -12.00489900	          0.20121500	          0.00600000	         -0.19472400	          0.00000000	          0.71827400	          0.00000000	          0.00000000	          0.00000000	          0.00000000	          0.75210000	          0.00000000	         -0.19049100	          0.00000000	          0.00000000	          0.00000000	
          0.34250000	        -51.29868900	        652.65804300	        -11.93458200	          0.20146300	          0.00600000	         -0.19474700	          0.00000000	          0.71166100	          0.00000000	          0.00000000	          0.00000000	          0.00000000	          0.75210000	          0.00000000	         -0.19049100	          0.00000000	          0.00000000	          0.00000000	
          0.34300000	        -51.08342800	        652.06650800	        -11.86419000	          0.20171100	          0.00600000	         -0.19477100	          0.00000000	          0.70489000	          0.00000000	          0.00000000	          0.00000000	          0.00000000	          0.75210000	          0.00000000	         -0.19049100	          0.00000000	          0.00000000	          0.00000000	
          0.34350000	        -50.86821200	        651.47889800	        -11.79372800	          0.20195800	          0.00600000	         -0.19479400	          0.00000000	          0.69796100	          0.00000000	          0.00000000	          0.00000000	          0.00000000	          0.75210000	          0.00000000	         -0.19049100	          0.00000000	          0.00000000	          0.00000000	
          0.34400000	        -50.65304700	        650.89525800	        -11.72319700	          0.20220600	          0.00600000	         -0.19481800	          0.00000000	          0.69087600	          0.00000000	          0.00000000	          0.00000000	          0.00000000	          0.75210000	          0.00000000	         -0.19049100	          0.00000000	          0.00000000	          0.00000000	
          0.34450000	        -50.43793800	        650.31563500	        -11.65260000	          0.20245400	          0.00600000	         -0.19484100	          0.00000000	          0.68363400	          0.00000000	          0.00000000	          0.00000000	          0.00000000	          0.75210000	          0.00000000	         -0.19049100	          0.00000000	          0.00000000	          0.00000000	
          0.34500000	        -50.22289000	        649.74007300	        -11.58193900	          0.20270100	          0.00600000	         -0.19486500	          0.00000000	          0.67623600	          0.00000000	          0.00000000	          0.00000000	          0.00000000	          0.75210000	          0.00000000	         -0.19049100	          0.00000000	          0.00000000	          0.00000000	
          0.34550000	        -50.00791000	        649.16861700	        -11.51121800	          0.20294900	          0.00600000	         -0.19488800	          0.00000000	          0.66868400	          0.00000000	          0.00000000	          0.00000000	          0.00000000	          0.75210000	          0.00000000	         -0.19049100	          0.00000000	          0.00000000	          0.00000000	
          0.34600000	        -49.79300200	        648.60131000	        -11.44043900	          0.20319600	          0.00600000	         -0.19491200	          0.00000000	          0.66097700	          0.00000000	          0.00000000	          0.00000000	          0.00000000	          0.75210000	          0.00000000	         -0.19049100	          0.00000000	          0.00000000	          0.00000000	
          0.34650000	        -49.57817100	        648.03819300	        -11.36960600	          0.20344400	          0.00600000	         -0.19493500	          0.00000000	          0.65311600	          0.00000000	          0.00000000	          0.00000000	          0.00000000	          0.75210000	          0.00000000	         -0.19049100	          0.00000000	          0.00000000	          0.00000000	
          0.34700000	        -49.36342300	        647.47931000	        -11.29872100	          0.20369100	          0.00600000	         -0.19495900	          0.00000000	          0.64510300	          0.00000000	          0.00000000	          0.00000000	          0.00000000	          0.75210000	          0.00000000	         -0.19049100	          0.00000000	          0.00000000	          0.00000000	
          0.34750000	        -49.14876300	        646.92469900	        -11.22778700	          0.20393900	          0.00600000	         -0.19498200	          0.00000000	          0.63693700	          0.00000000	          0.00000000	          0.00000000	          0.00000000	          0.75210000	          0.00000000	         -0.19049100	          0.00000000	          0.00000000	          0.00000000	
          0.34800000	        -48.93419500	        646.37440200	        -11.15680900	          0.20418600	          0.00600000	         -0.19500600	          0.00000000	          0.62862000	          0.00000000	          0.00000000	          0.00000000	          0.00000000	          0.75210000	          0.00000000	         -0.19049100	          0.00000000	          0.00000000	          0.00000000	
          0.34850000	        -48.71972600	        645.82845800	        -11.08578800	          0.20443300	          0.00600000	         -0.19502900	          0.00000000	          0.62015300	          0.00000000	          0.00000000	          0.00000000	          0.00000000	          0.75210000	          0.00000000	         -0.19049100	          0.00000000	          0.00000000	          0.00000000	
